<?xml version="1.0" standalone="no"?>
<!DOCTYPE svg PUBLIC "-//W3C//DTD SVG 20010904//EN"
 "http://www.w3.org/TR/2001/REC-SVG-20010904/DTD/svg10.dtd">
<svg version="1.0" xmlns="http://www.w3.org/2000/svg"
 width="259.000000pt" height="194.000000pt" viewBox="0 0 259.000000 194.000000"
 preserveAspectRatio="xMidYMid meet">

<g transform="translate(0.000000,194.000000) scale(0.100000,-0.100000)"
fill="#000000" stroke="none">
<path d="M472 1360 c-27 -17 -50 -56 -136 -233 -57 -116 -109 -231 -116 -254
-23 -76 9 -151 76 -179 67 -28 133 -12 201 50 l40 35 28 -29 c88 -92 217 -91
276 2 38 62 26 109 -98 360 -73 149 -120 232 -138 246 -35 28 -89 28 -133 2z
m116 -33 c15 -12 159 -295 212 -416 37 -85 35 -123 -6 -165 -51 -51 -122 -42
-197 24 l-37 32 31 44 c43 63 59 106 59 160 0 39 -5 51 -34 80 -41 41 -92 46
-144 14 -73 -45 -67 -151 15 -258 l25 -34 -28 -30 c-16 -17 -49 -39 -73 -50
-56 -26 -101 -18 -136 24 -46 55 -35 99 89 351 94 193 110 220 139 232 32 14
61 11 85 -8z m4 -264 c38 -33 31 -95 -21 -180 -14 -24 -30 -42 -36 -40 -22 7
-75 112 -75 148 0 53 9 69 43 84 33 14 63 10 89 -12z"/>
<path d="M1610 1053 l0 -193 30 0 c17 0 30 4 30 9 0 6 15 4 34 -4 53 -22 125
4 151 55 33 64 12 150 -45 184 -31 18 -105 22 -115 6 -16 -26 -25 -4 -25 63
l0 72 -30 0 -30 0 0 -192z m174 -4 c55 -43 23 -139 -47 -139 -55 0 -67 15 -67
80 0 46 4 61 18 69 28 17 67 13 96 -10z"/>
<path d="M2190 1053 l0 -193 24 0 c13 0 26 5 28 10 2 7 16 6 39 -4 108 -45
212 88 149 191 -29 48 -62 66 -112 61 -24 -3 -51 -8 -60 -12 -16 -7 -18 -1
-18 65 0 72 -1 74 -25 74 l-25 0 0 -192z m175 -8 c35 -34 34 -86 -1 -114 -32
-25 -71 -27 -102 -5 -32 22 -32 106 0 128 33 23 75 20 103 -9z"/>
<path d="M1311 1226 c-7 -8 -10 -24 -6 -35 14 -45 79 -30 73 17 -2 21 -9 28
-29 30 -14 2 -31 -4 -38 -12z"/>
<path d="M1056 1099 c-118 -92 -22 -290 113 -233 23 10 37 11 39 4 2 -5 15
-10 28 -10 l24 0 0 130 0 130 -24 0 c-13 0 -26 -5 -28 -11 -3 -9 -9 -9 -25 0
-35 18 -97 13 -127 -10z m128 -42 c26 -19 26 -115 0 -134 -26 -19 -67 -16 -98
8 -56 44 -20 139 53 139 15 0 35 -6 45 -13z"/>
<path d="M1310 990 l0 -130 30 0 30 0 0 130 0 130 -30 0 -30 0 0 -130z"/>
<path d="M1420 990 l0 -130 30 0 30 0 0 95 c0 103 7 115 64 115 21 0 26 5 26
25 0 21 -5 25 -28 25 -15 0 -34 -6 -41 -12 -11 -10 -14 -10 -18 0 -3 6 -18 12
-34 12 l-29 0 0 -130z"/>
<path d="M1910 990 l0 -130 30 0 30 0 0 95 c0 85 2 95 20 105 33 18 73 8 87
-20 9 -16 12 -53 11 -103 l-3 -77 28 0 27 0 0 105 c0 102 -1 107 -26 130 -30
28 -89 34 -127 14 -16 -9 -22 -9 -25 0 -2 6 -15 11 -28 11 l-24 0 0 -130z"/>
</g>
</svg>
